<mxfile host="app.diagrams.net" modified="2021-10-22T16:15:03.395Z" agent="5.0 (Windows NT 10.0; Win64; x64) AppleWebKit/537.36 (KHTML, like Gecko) Chrome/94.0.4606.81 Safari/537.36" etag="DH96QlyrkUWER7IqZnH-" version="15.5.8" type="github">
  <diagram id="qZrn3YSUSXq9uKFyzV25" name="Page-1">
    <mxGraphModel dx="1021" dy="529" grid="1" gridSize="10" guides="1" tooltips="1" connect="1" arrows="1" fold="1" page="1" pageScale="1" pageWidth="1600" pageHeight="900" math="0" shadow="0">
      <root>
        <mxCell id="0" />
        <mxCell id="1" parent="0" />
        <mxCell id="DP_lbnYN4fehaaFwYtT6-1" value="" style="edgeStyle=entityRelationEdgeStyle;fontSize=12;html=1;endArrow=ERoneToMany;rounded=0;fontColor=none;exitX=1;exitY=0.427;exitDx=0;exitDy=0;exitPerimeter=0;startArrow=none;" edge="1" parent="1" source="DP_lbnYN4fehaaFwYtT6-38">
          <mxGeometry width="100" height="100" relative="1" as="geometry">
            <mxPoint x="212.5" y="100" as="sourcePoint" />
            <mxPoint x="802.5" y="100" as="targetPoint" />
          </mxGeometry>
        </mxCell>
        <mxCell id="DP_lbnYN4fehaaFwYtT6-3" style="edgeStyle=orthogonalEdgeStyle;rounded=0;orthogonalLoop=1;jettySize=auto;html=1;exitX=0.5;exitY=1;exitDx=0;exitDy=0;" edge="1" parent="1">
          <mxGeometry relative="1" as="geometry">
            <mxPoint x="909" y="125" as="sourcePoint" />
            <mxPoint x="909" y="125" as="targetPoint" />
          </mxGeometry>
        </mxCell>
        <mxCell id="DP_lbnYN4fehaaFwYtT6-4" value="&lt;b&gt;&lt;font style=&quot;font-size: 20px&quot;&gt;Teams&lt;/font&gt;&lt;/b&gt;" style="rounded=1;arcSize=10;whiteSpace=wrap;html=1;align=center;" vertex="1" parent="1">
          <mxGeometry x="300" y="280" width="140" height="77.5" as="geometry" />
        </mxCell>
        <mxCell id="DP_lbnYN4fehaaFwYtT6-5" value="&lt;i&gt;team_name&lt;/i&gt;" style="ellipse;whiteSpace=wrap;html=1;align=center;" vertex="1" parent="1">
          <mxGeometry x="300" y="403.13" width="140" height="38.75" as="geometry" />
        </mxCell>
        <mxCell id="DP_lbnYN4fehaaFwYtT6-6" value="Team_coach" style="ellipse;whiteSpace=wrap;html=1;align=center;" vertex="1" parent="1">
          <mxGeometry x="300" y="484.38" width="140" height="40" as="geometry" />
        </mxCell>
        <mxCell id="DP_lbnYN4fehaaFwYtT6-7" value="Team_city" style="ellipse;whiteSpace=wrap;html=1;align=center;" vertex="1" parent="1">
          <mxGeometry x="300" y="444.38" width="140" height="40" as="geometry" />
        </mxCell>
        <mxCell id="DP_lbnYN4fehaaFwYtT6-8" value="Team_captain" style="ellipse;whiteSpace=wrap;html=1;align=center;" vertex="1" parent="1">
          <mxGeometry x="300" y="524.38" width="140" height="40" as="geometry" />
        </mxCell>
        <mxCell id="DP_lbnYN4fehaaFwYtT6-9" value="Team_playes" style="ellipse;whiteSpace=wrap;html=1;align=center;" vertex="1" parent="1">
          <mxGeometry x="300" y="564.38" width="140" height="40" as="geometry" />
        </mxCell>
        <mxCell id="DP_lbnYN4fehaaFwYtT6-13" value="Host_team" style="ellipse;whiteSpace=wrap;html=1;align=center;" vertex="1" parent="1">
          <mxGeometry x="1025" y="617.5" width="145" height="40" as="geometry" />
        </mxCell>
        <mxCell id="DP_lbnYN4fehaaFwYtT6-15" value="Game_ID(PK)" style="ellipse;whiteSpace=wrap;html=1;align=center;" vertex="1" parent="1">
          <mxGeometry x="1022.5" y="577.5" width="145" height="40" as="geometry" />
        </mxCell>
        <mxCell id="DP_lbnYN4fehaaFwYtT6-20" value="&lt;b&gt;&lt;font style=&quot;font-size: 16px&quot;&gt;Games&lt;/font&gt;&lt;/b&gt;" style="rounded=1;arcSize=10;whiteSpace=wrap;html=1;align=center;" vertex="1" parent="1">
          <mxGeometry x="1020" y="497.5" width="200" height="80" as="geometry" />
        </mxCell>
        <mxCell id="DP_lbnYN4fehaaFwYtT6-21" value="Guess_team" style="ellipse;whiteSpace=wrap;html=1;align=center;" vertex="1" parent="1">
          <mxGeometry x="1022.5" y="657.5" width="145" height="40" as="geometry" />
        </mxCell>
        <mxCell id="DP_lbnYN4fehaaFwYtT6-22" value="&lt;b&gt;&lt;font style=&quot;font-size: 20px&quot;&gt;Players&lt;/font&gt;&lt;/b&gt;" style="rounded=1;arcSize=10;whiteSpace=wrap;html=1;align=center;" vertex="1" parent="1">
          <mxGeometry x="800" y="90" width="150" height="87.5" as="geometry" />
        </mxCell>
        <mxCell id="DP_lbnYN4fehaaFwYtT6-23" value="Player_name" style="ellipse;whiteSpace=wrap;html=1;align=center;" vertex="1" parent="1">
          <mxGeometry x="802.5" y="217.5" width="145" height="40" as="geometry" />
        </mxCell>
        <mxCell id="DP_lbnYN4fehaaFwYtT6-24" value="&lt;i&gt;Player_ID(PK)&lt;/i&gt;" style="ellipse;whiteSpace=wrap;html=1;align=center;" vertex="1" parent="1">
          <mxGeometry x="802.5" y="177.5" width="145" height="40" as="geometry" />
        </mxCell>
        <mxCell id="DP_lbnYN4fehaaFwYtT6-25" value="Player_position" style="ellipse;whiteSpace=wrap;html=1;align=center;" vertex="1" parent="1">
          <mxGeometry x="805" y="257.5" width="145" height="40" as="geometry" />
        </mxCell>
        <mxCell id="DP_lbnYN4fehaaFwYtT6-26" style="edgeStyle=orthogonalEdgeStyle;rounded=0;orthogonalLoop=1;jettySize=auto;html=1;exitX=0;exitY=0.5;exitDx=0;exitDy=0;entryX=0;entryY=0.75;entryDx=0;entryDy=0;" edge="1" parent="1">
          <mxGeometry relative="1" as="geometry">
            <mxPoint x="966.79" y="210" as="sourcePoint" />
            <mxPoint x="966.79" y="220" as="targetPoint" />
          </mxGeometry>
        </mxCell>
        <mxCell id="DP_lbnYN4fehaaFwYtT6-35" value="" style="edgeStyle=entityRelationEdgeStyle;fontSize=12;html=1;endArrow=ERmandOne;startArrow=ERmandOne;rounded=0;fontColor=none;exitX=1;exitY=0.5;exitDx=0;exitDy=0;" edge="1" parent="1" source="DP_lbnYN4fehaaFwYtT6-22">
          <mxGeometry width="100" height="100" relative="1" as="geometry">
            <mxPoint x="1170" y="306.87" as="sourcePoint" />
            <mxPoint x="1020" y="530" as="targetPoint" />
          </mxGeometry>
        </mxCell>
        <mxCell id="DP_lbnYN4fehaaFwYtT6-36" value="N:1" style="edgeLabel;html=1;align=center;verticalAlign=middle;resizable=0;points=[];fontSize=18;fontColor=none;" vertex="1" connectable="0" parent="DP_lbnYN4fehaaFwYtT6-35">
          <mxGeometry x="0.433" y="-2" relative="1" as="geometry">
            <mxPoint x="-2" y="7" as="offset" />
          </mxGeometry>
        </mxCell>
        <mxCell id="DP_lbnYN4fehaaFwYtT6-37" value="&lt;font style=&quot;font-size: 16px&quot;&gt;Play&lt;/font&gt;" style="rhombus;whiteSpace=wrap;html=1;rounded=1;arcSize=10;" vertex="1" parent="1">
          <mxGeometry x="940" y="346.87" width="90" height="80" as="geometry" />
        </mxCell>
        <mxCell id="DP_lbnYN4fehaaFwYtT6-39" value="&lt;i&gt;teams_ID(PK)&lt;/i&gt;" style="ellipse;whiteSpace=wrap;html=1;align=center;" vertex="1" parent="1">
          <mxGeometry x="300" y="358.75" width="140" height="38.75" as="geometry" />
        </mxCell>
        <mxCell id="DP_lbnYN4fehaaFwYtT6-40" value="Player_skill_level" style="ellipse;whiteSpace=wrap;html=1;align=center;" vertex="1" parent="1">
          <mxGeometry x="805" y="300" width="145" height="40" as="geometry" />
        </mxCell>
        <mxCell id="DP_lbnYN4fehaaFwYtT6-41" value="Player_injuries_record" style="ellipse;whiteSpace=wrap;html=1;align=center;" vertex="1" parent="1">
          <mxGeometry x="805" y="340" width="145" height="40" as="geometry" />
        </mxCell>
        <mxCell id="DP_lbnYN4fehaaFwYtT6-42" value="date_game" style="ellipse;whiteSpace=wrap;html=1;align=center;" vertex="1" parent="1">
          <mxGeometry x="1025" y="700" width="145" height="40" as="geometry" />
        </mxCell>
        <mxCell id="DP_lbnYN4fehaaFwYtT6-43" value="score_game" style="ellipse;whiteSpace=wrap;html=1;align=center;" vertex="1" parent="1">
          <mxGeometry x="1030" y="740" width="145" height="40" as="geometry" />
        </mxCell>
        <mxCell id="DP_lbnYN4fehaaFwYtT6-38" value="&lt;font style=&quot;font-size: 16px&quot;&gt;Belongs&lt;/font&gt;" style="rhombus;whiteSpace=wrap;html=1;rounded=1;arcSize=10;" vertex="1" parent="1">
          <mxGeometry x="560" y="64.37" width="90" height="80" as="geometry" />
        </mxCell>
        <mxCell id="DP_lbnYN4fehaaFwYtT6-44" value="" style="edgeStyle=entityRelationEdgeStyle;fontSize=12;html=1;endArrow=none;rounded=0;fontColor=none;exitX=1;exitY=0.427;exitDx=0;exitDy=0;exitPerimeter=0;" edge="1" parent="1" source="DP_lbnYN4fehaaFwYtT6-4" target="DP_lbnYN4fehaaFwYtT6-38">
          <mxGeometry width="100" height="100" relative="1" as="geometry">
            <mxPoint x="349.9999999999998" y="99.96249999999998" as="sourcePoint" />
            <mxPoint x="802.5" y="100" as="targetPoint" />
          </mxGeometry>
        </mxCell>
        <mxCell id="DP_lbnYN4fehaaFwYtT6-45" value="1:N" style="edgeLabel;html=1;align=center;verticalAlign=middle;resizable=0;points=[];fontSize=18;fontColor=none;" vertex="1" connectable="0" parent="DP_lbnYN4fehaaFwYtT6-44">
          <mxGeometry x="-0.0705" y="2" relative="1" as="geometry">
            <mxPoint x="175" y="-128" as="offset" />
          </mxGeometry>
        </mxCell>
        <mxCell id="DP_lbnYN4fehaaFwYtT6-46" value="Team_captain" style="ellipse;whiteSpace=wrap;html=1;align=center;" vertex="1" parent="1">
          <mxGeometry x="805" y="380" width="145" height="40" as="geometry" />
        </mxCell>
        <mxCell id="DP_lbnYN4fehaaFwYtT6-47" value="" style="edgeStyle=entityRelationEdgeStyle;fontSize=12;html=1;endArrow=ERoneToMany;rounded=0;exitX=1;exitY=1;exitDx=0;exitDy=0;entryX=0;entryY=0.75;entryDx=0;entryDy=0;startArrow=none;" edge="1" parent="1" source="DP_lbnYN4fehaaFwYtT6-48" target="DP_lbnYN4fehaaFwYtT6-20">
          <mxGeometry width="100" height="100" relative="1" as="geometry">
            <mxPoint x="720" y="664.38" as="sourcePoint" />
            <mxPoint x="820" y="564.38" as="targetPoint" />
          </mxGeometry>
        </mxCell>
        <mxCell id="DP_lbnYN4fehaaFwYtT6-48" value="&lt;span style=&quot;font-size: 16px&quot;&gt;play&lt;/span&gt;" style="rhombus;whiteSpace=wrap;html=1;rounded=1;arcSize=10;" vertex="1" parent="1">
          <mxGeometry x="580" y="382.51" width="90" height="80" as="geometry" />
        </mxCell>
        <mxCell id="DP_lbnYN4fehaaFwYtT6-49" value="" style="edgeStyle=entityRelationEdgeStyle;fontSize=12;html=1;endArrow=none;rounded=0;exitX=1;exitY=1;exitDx=0;exitDy=0;entryX=0;entryY=0.75;entryDx=0;entryDy=0;" edge="1" parent="1" source="DP_lbnYN4fehaaFwYtT6-4" target="DP_lbnYN4fehaaFwYtT6-48">
          <mxGeometry width="100" height="100" relative="1" as="geometry">
            <mxPoint x="440" y="357.5" as="sourcePoint" />
            <mxPoint x="1020" y="557.4999999999998" as="targetPoint" />
          </mxGeometry>
        </mxCell>
        <mxCell id="DP_lbnYN4fehaaFwYtT6-50" value="N:1" style="edgeLabel;html=1;align=center;verticalAlign=middle;resizable=0;points=[];fontSize=18;fontColor=none;" vertex="1" connectable="0" parent="1">
          <mxGeometry x="680.2177587706096" y="100.12809796972363" as="geometry">
            <mxPoint x="4" y="314" as="offset" />
          </mxGeometry>
        </mxCell>
      </root>
    </mxGraphModel>
  </diagram>
</mxfile>
